<?xml version="1.0" encoding="UTF-8" standalone="no"?>
<!DOCTYPE svg PUBLIC "-//W3C//DTD SVG 1.1//EN" "http://www.w3.org/Graphics/SVG/1.1/DTD/svg11.dtd">
<svg version="1.1" xmlns="http://www.w3.org/2000/svg" xmlns:xlink="http://www.w3.org/1999/xlink" preserveAspectRatio="xMidYMid meet" viewBox="0 0 1200 800" width="1200" height="800"><defs><path d="M654.54 345.1C678.65 345.1 698.18 364.4 698.18 388.22C698.19 454.18 610.91 486.91 610.91 488.73C610.91 488.73 610.91 488.73 610.91 488.73C610.91 486.91 523.64 454.18 523.64 388.22C523.64 364.4 543.17 345.09 567.27 345.09C591.37 345.09 610.91 362.01 610.91 385.83C610.91 362.01 630.44 345.1 654.54 345.1Z" id="gmc2ubEx9"></path></defs><g><g><g><g><filter id="shadow14351435" x="481.64" y="303.09" width="271.55" height="239.64" filterUnits="userSpaceOnUse" primitiveUnits="userSpaceOnUse"><feFlood></feFlood><feComposite in2="SourceAlpha" operator="in"></feComposite><feGaussianBlur stdDeviation="3.46"></feGaussianBlur><feOffset dx="13" dy="12" result="afterOffset"></feOffset><feFlood flood-color="#000000" flood-opacity="0.53"></feFlood><feComposite in2="afterOffset" operator="in"></feComposite><feMorphology operator="dilate" radius="0"></feMorphology><feComposite in2="SourceAlpha" operator="out"></feComposite></filter><path d="M654.54 345.1C678.65 345.1 698.18 364.4 698.18 388.22C698.19 454.18 610.91 486.91 610.91 488.73C610.91 488.73 610.91 488.73 610.91 488.73C610.91 486.91 523.64 454.18 523.64 388.22C523.64 364.4 543.17 345.09 567.27 345.09C591.37 345.09 610.91 362.01 610.91 385.83C610.91 362.01 630.44 345.1 654.54 345.1Z" id="juTLGBpt9" fill="white" fill-opacity="1" filter="url(#shadow14351435)"></path></g><use xlink:href="#gmc2ubEx9" opacity="1" fill="#fa292a" fill-opacity="1"></use><g><use xlink:href="#gmc2ubEx9" opacity="1" fill-opacity="0" stroke="#fa292a" stroke-width="5" stroke-opacity="1"></use></g></g></g></g></svg>